<?xml version="1.0" encoding="UTF-8" standalone="no"?>
<svg
   xmlns:dc="http://purl.org/dc/elements/1.1/"
   xmlns:cc="http://creativecommons.org/ns#"
   xmlns:rdf="http://www.w3.org/1999/02/22-rdf-syntax-ns#"
   xmlns:svg="http://www.w3.org/2000/svg"
   xmlns="http://www.w3.org/2000/svg"
   xmlns:sodipodi="http://sodipodi.sourceforge.net/DTD/sodipodi-0.dtd"
   xmlns:inkscape="http://www.inkscape.org/namespaces/inkscape"
   color-rendering="auto"
   color-interpolation="auto"
   text-rendering="auto"
   stroke-miterlimit="10"
   shape-rendering="auto"
   font-weight="normal"
   font-style="normal"
   font-size="12"
   image-rendering="auto"
   id="svg3036"
   version="1.1"
   inkscape:version="0.48.4 r9939"
   width="62"
   height="62"
   viewBox="0 0 62 62"
   sodipodi:docname="white_bullet.svg"
   style="font-size:12px;font-style:normal;font-weight:normal;fill:#000000;fill-opacity:1;stroke:#000000;stroke-width:1;stroke-linecap:square;stroke-linejoin:miter;stroke-miterlimit:10;stroke-opacity:1;stroke-dasharray:none;stroke-dashoffset:0;font-family:Dialog">
  <metadata
     id="metadata3047">
    <rdf:RDF>
      <cc:Work
         rdf:about="">
        <dc:format>image/svg+xml</dc:format>
        <dc:type
           rdf:resource="http://purl.org/dc/dcmitype/StillImage" />
      </cc:Work>
    </rdf:RDF>
  </metadata>
  <sodipodi:namedview
     pagecolor="#ffffff"
     bordercolor="#666666"
     borderopacity="1"
     objecttolerance="10"
     gridtolerance="10"
     guidetolerance="10"
     inkscape:pageopacity="0"
     inkscape:pageshadow="2"
     id="namedview3045"
     showgrid="false"
     fit-margin-top="0"
     fit-margin-left="0"
     fit-margin-right="0"
     fit-margin-bottom="0" />
  <defs
     id="genericDefs" />
  <g
     id="g3039"
     transform="translate(-55.5469,-247.0781)">
    <g
       id="g3041">
      <path
         d="m 86.3438,247.0781 q 12.7968,0 21.8671,9.0703 9.0703,9.0704 9.0703,21.7266 0,12.7969 -9.0703,21.7969 -9.0703,9 -21.8671,9 -12.6563,0 -21.7266,-9.0703 -9.0703,-9.0704 -9.0703,-21.7266 0,-12.6562 9.0703,-21.7266 9.0703,-9.0703 21.7266,-9.0703 z m 0,50.9063 q 8.4374,0 14.3437,-5.836 5.9063,-5.8359 5.9063,-14.2734 0,-8.4375 -5.9063,-14.2734 -5.9063,-5.836 -14.3437,-5.836 -8.2969,0 -14.2032,5.836 -5.9062,5.8359 -5.9062,14.2734 0,8.4375 5.9062,14.2734 5.9063,5.836 14.2032,5.836 z"
         id="path3043"
         inkscape:connector-curvature="0"
         style="stroke:none" />
    </g>
  </g>
</svg>
